<?xml version="1.0" encoding="iso-8859-1"?>
<!-- Uploaded to: SVG Repo, www.svgrepo.com, Generator: SVG Repo Mixer Tools -->
<svg fill="#000000" version="1.1" id="Layer_1" xmlns="http://www.w3.org/2000/svg" xmlns:xlink="http://www.w3.org/1999/xlink" 
	 viewBox="0 0 512 512" xml:space="preserve">
<g>
	<g>
		<rect x="56.424" y="495.282" width="399.151" height="16.718"/>
	</g>
</g>
<g>
	<g>
		<path d="M415.869,470.204v-72.098h-11.166c7.032-8.412,11.21-19.287,11.21-31.156c0-26.608-21.474-48.257-48.077-48.257h-95.118
			v16.718h50.572c16.039,1.751,28.195,15.228,28.195,31.548c0,15.407-10.833,28.28-25.542,31.146h-56.918
			c7.087-8.414,11.314-19.287,11.314-31.156c0-26.608-21.517-48.257-48.12-48.257H144.47c-26.603,0-48.383,21.648-48.383,48.256
			c0,11.868,4.382,22.742,11.547,31.156H96.131v72.098H80.457v16.718h351.086v-16.718H415.869z M232.22,335.412
			c17.385,0,31.402,14.148,31.402,31.538c0,15.732-11.374,28.81-26.698,31.156h-7.358l-25.043-62.694H232.22z M187,335.633
			l25,62.473h-25.939c-14.703-2.867-25.511-15.753-25.511-31.161C160.551,351.257,172.025,338.175,187,335.633z M144.469,335.412
			h11.528c-7.297,8.45-11.728,19.441-11.728,31.428c0,11.91,4.432,22.836,11.677,31.265h-16.483
			c-14.659-2.359-26.658-15.431-26.658-31.156C112.804,349.56,127.084,335.412,144.469,335.412z M399.151,470.204H112.849v-55.38
			h286.302V470.204z M372.696,398.106h-16.215c7.079-8.393,11.285-19.269,11.285-31.146c0-12.069-4.342-23.102-11.629-31.548h11.698
			c17.384,0,31.358,14.148,31.358,31.538C399.195,382.697,388.009,395.784,372.696,398.106z"/>
	</g>
</g>
<g>
	<g>
		<rect x="248.686" y="111.804" width="14.629" height="16.718"/>
	</g>
</g>
<g>
	<g>
		<path d="M323.709,135.452h-34.768c4.563-6.369,7.261-14.16,7.261-22.575v-32.42h7.863V63.739h-7.863V46.671
			c0-19.031-13.755-34.899-31.843-38.211V0h-16.718v8.515c-17.938,3.434-31.539,19.232-31.539,38.157v17.067h-8.167v16.718h8.167
			v32.419c0,8.415,2.698,16.207,7.261,22.575h-34.769c-28.819,0-52.267,23.446-52.267,52.266V311.28h79.938V295H152.61V187.718
			c0-19.842,16.142-35.984,35.984-35.984h8.345l95.906,95.907h-20.127v14.629h-32.392v-14.629h-48.065v-56.424h-16.718v73.143
			h24.033v22.988h16.718v-22.988h7.314v47.02h65.829v-47.02h6.269v22.988h16.718v-22.988h24.033v-73.143h-16.718v56.424h-3.868
			l-48.206-48.206l47.701-47.701h8.345c19.842,0,35.984,16.143,35.984,35.984V295h-63.655v16.282h79.938V187.718
			C375.976,158.899,352.53,135.452,323.709,135.452z M272.718,294.661h-32.392v-15.674h32.392V294.661z M254.959,24.095h2.385
			c9.826,0,18.201,6.312,21.296,15.091c-6.695-4.784-14.459-7.358-22.488-7.358c-8.259,0-15.784,2.245-22.038,6.183
			C237.517,29.85,245.578,24.095,254.959,24.095z M232.384,87.771h16.301V71.053h-15.626c0.495-13.098,10.171-22.505,23.462-22.505
			c12.465,0,22.265,11.181,23.398,21.568v0.937h-16.606v16.718h12.405l4.202,2.708v22.396c0,12.448-10.127,22.575-22.576,22.575
			h-2.385c-12.448,0-22.575-10.127-22.575-22.575V87.771z M256.153,187.922l-36.188-36.188h34.995h2.385h34.996L256.153,187.922z"/>
	</g>
</g>
<g>
	<g>
		<rect x="248.686" y="446.171" width="14.629" height="16.718"/>
	</g>
</g>
<g>
	<g>
		<rect x="272.718" y="446.171" width="14.629" height="16.718"/>
	</g>
</g>
<g>
	<g>
		<rect x="224.653" y="446.171" width="15.673" height="16.718"/>
	</g>
</g>
</svg>